<svg xmlns="http://www.w3.org/2000/svg" width="16" height="16" viewBox="0 0 16 16" class="b2120-b0"><path fill="white" d="M6.274 2.476a.833.833 0 0 0-1.548-.619L3.27 5.5h-.842c-.897 0-1.345 0-1.594.288S.648 6.52.777 7.407l.226 1.553c.396 2.721.594 4.082 1.533 4.894.94.813 2.314.813 5.064.813h.8c2.75 0 4.125 0 5.064-.813s1.137-2.173 1.533-4.894l.226-1.553c.129-.887.193-1.33-.056-1.619-.25-.288-.697-.288-1.594-.288h-.842l-1.457-3.643a.833.833 0 1 0-1.548.62l1.21 3.023H5.064zm.893 7.19v1.667a.833.833 0 1 1-1.667 0V9.667a.833.833 0 1 1 1.667 0m2.5-.833c.46 0 .833.373.833.834v1.666a.833.833 0 1 1-1.667 0V9.667c0-.46.373-.834.834-.834"></path></svg>